<?xml version="1.0" encoding="utf-8"?>
<svg version="1.1" xmlns:xlink="http://www.w3.org/1999/xlink" width="16px" height="16px" xmlns="http://www.w3.org/2000/svg">
  <g transform="matrix(1 0 0 1 -874 -16 )">
    <path d="M 11.1785714285714 14.0758928571429  C 12.1607142857143 13.5550595238095  12.9672619047619 12.8482142857143  13.5982142857143 11.9553571428571  C 13.4672619047619 11.0327380952381  13.2068452380952 10.266369047619  12.8169642857143 9.65625  C 12.4270833333333 9.04613095238095  11.8779761904762 8.69345238095238  11.1696428571429 8.59821428571428  C 10.7708333333333 9.03869047619047  10.296130952381 9.38244047619047  9.74553571428571 9.62946428571428  C 9.19494047619048 9.87648809523809  8.61309523809524 10  8 10  C 7.38690476190476 10  6.80505952380952 9.87648809523809  6.25446428571429 9.62946428571428  C 5.70386904761905 9.38244047619047  5.22916666666667 9.03869047619047  4.83035714285714 8.59821428571428  C 4.12202380952381 8.69345238095238  3.57291666666667 9.04613095238095  3.18303571428571 9.65625  C 2.79315476190476 10.266369047619  2.5327380952381 11.0327380952381  2.40178571428571 11.9553571428571  C 3.0327380952381 12.8482142857143  3.83928571428571 13.5550595238095  4.82142857142857 14.0758928571429  C 5.80357142857143 14.5967261904762  6.86309523809524 14.8571428571429  8 14.8571428571429  C 9.13690476190476 14.8571428571429  10.1964285714286 14.5967261904762  11.1785714285714 14.0758928571429  Z M 10.4241071428571 8.13839285714286  C 11.09375 7.46875  11.4285714285714 6.66071428571429  11.4285714285714 5.71428571428571  C 11.4285714285714 4.76785714285714  11.09375 3.95982142857143  10.4241071428571 3.29017857142857  C 9.75446428571429 2.62053571428571  8.94642857142857 2.28571428571429  8 2.28571428571429  C 7.05357142857143 2.28571428571429  6.24553571428571 2.62053571428571  5.57589285714286 3.29017857142857  C 4.90625 3.95982142857143  4.57142857142857 4.76785714285714  4.57142857142857 5.71428571428571  C 4.57142857142857 6.66071428571429  4.90625 7.46875  5.57589285714286 8.13839285714286  C 6.24553571428571 8.80803571428572  7.05357142857143 9.14285714285714  8 9.14285714285714  C 8.94642857142857 9.14285714285714  9.75446428571429 8.80803571428572  10.4241071428571 8.13839285714286  Z M 15.3660714285714 4.89285714285714  C 15.7886904761905 5.88095238095238  16 6.91666666666667  16 8  C 16 9.08333333333333  15.7886904761905 10.1175595238095  15.3660714285714 11.1026785714286  C 14.9434523809524 12.0877976190476  14.3764880952381 12.9389880952381  13.6651785714286 13.65625  C 12.953869047619 14.3735119047619  12.1041666666667 14.9434523809524  11.1160714285714 15.3660714285714  C 10.1279761904762 15.7886904761905  9.08928571428571 16  8 16  C 6.91666666666667 16  5.88095238095238 15.7886904761905  4.89285714285714 15.3660714285714  C 3.90476190476191 14.9434523809524  3.05357142857143 14.375  2.33928571428571 13.6607142857143  C 1.625 12.9464285714286  1.05654761904762 12.0952380952381  0.633928571428571 11.1071428571429  C 0.211309523809524 10.1190476190476  0 9.08333333333333  0 8  C 0 6.91666666666667  0.211309523809524 5.88095238095238  0.633928571428571 4.89285714285714  C 1.05654761904762 3.9047619047619  1.625 3.05357142857143  2.33928571428571 2.33928571428571  C 3.05357142857143 1.625  3.90476190476191 1.05654761904762  4.89285714285714 0.633928571428571  C 5.88095238095238 0.211309523809524  6.91666666666667 0  8 0  C 9.08333333333333 0  10.1190476190476 0.211309523809524  11.1071428571429 0.633928571428571  C 12.0952380952381 1.05654761904762  12.9464285714286 1.625  13.6607142857143 2.33928571428571  C 14.375 3.05357142857143  14.9434523809524 3.9047619047619  15.3660714285714 4.89285714285714  Z " fill-rule="nonzero" fill="#7f7f7f" stroke="none" transform="matrix(1 0 0 1 874 16 )" />
  </g>
</svg>